<svg viewBox="-2.4 -2.4 28.80 28.80" fill="none" xmlns="http://www.w3.org/2000/svg" stroke="#ffffff"><g id="SVGRepo_bgCarrier" stroke-width="0"><path transform="translate(-2.4, -2.4), scale(0.8999999999999999)" d="M16,29.141840609476755C18.467598945702782,29.17753980606413,20.966344360142656,29.489597755746864,23.254559939433083,28.5652664016519C25.710937981970755,27.573005330283763,28.01213130748438,25.993357262479993,29.392232713764553,23.73200916234208C30.784673776347088,21.45044207089765,31.723740686468783,18.55019375080729,30.9231456959326,16C30.13285427355861,13.482626958101518,27.15125490811706,12.503374712012205,25.28243861330334,10.640781567873141C23.93777060863008,9.30059130219632,22.936732887503478,7.7406109152604525,21.45070482035609,6.5591023140826685C19.7595797214637,5.21452552298306,18.105904829150393,3.743171324746055,16,3.2605164813760084C13.644720741571797,2.720707214673292,10.754115866750885,2.145993257094392,8.886793189436986,3.679564399359883C6.96377157188745,5.25887926253547,8.198299558522432,8.623540931950409,6.891374907683723,10.741132851003812C5.522071270168005,12.95979657861267,1.464285023523912,13.399121063318844,1.282929172641353,15.999999999999996C1.106475792588052,18.530571124413378,4.800489483700293,19.53794407512672,6.127224111157721,21.700049817071925C7.4039047357587675,23.780585330319234,6.916347585409663,26.887794157313092,8.865625504698404,28.35709910608592C10.809251712671552,29.8221439709975,13.566319730362046,29.10663212046037,16,29.141840609476755" fill="#A72536" strokewidth="0"></path></g><g id="SVGRepo_tracerCarrier" stroke-linecap="round" stroke-linejoin="round"></g><g id="SVGRepo_iconCarrier"> <path d="M14.2647 15.9377L12.5473 14.2346C11.758 13.4519 11.3633 13.0605 10.9089 12.9137C10.5092 12.7845 10.079 12.7845 9.67922 12.9137C9.22485 13.0605 8.83017 13.4519 8.04082 14.2346L4.04193 18.2622M14.2647 15.9377L14.606 15.5991C15.412 14.7999 15.8149 14.4003 16.2773 14.2545C16.6839 14.1262 17.1208 14.1312 17.5244 14.2688C17.9832 14.4253 18.3769 14.834 19.1642 15.6515L20 16.5001M14.2647 15.9377L18.22 19.9628M12 4H7.2C6.07989 4 5.51984 4 5.09202 4.21799C4.7157 4.40973 4.40973 4.71569 4.21799 5.09202C4 5.51984 4 6.0799 4 7.2V16.8C4 17.4466 4 17.9066 4.04193 18.2622M4.04193 18.2622C4.07264 18.5226 4.12583 18.7271 4.21799 18.908C4.40973 19.2843 4.7157 19.5903 5.09202 19.782C5.51984 20 6.07989 20 7.2 20H16.8C17.9201 20 18.4802 20 18.908 19.782C19.2843 19.5903 19.5903 19.2843 19.782 18.908C20 18.4802 20 17.9201 20 16.8V12M16 3L18.5 5.5M18.5 5.5L21 8M18.5 5.5L21 3M18.5 5.5L16 8" stroke="#ffffff" stroke-width="0.528" stroke-linecap="round" stroke-linejoin="round"></path> </g></svg>