<svg id="visual" viewBox="0 0 960 540" width="960" height="540" xmlns="http://www.w3.org/2000/svg" xmlns:xlink="http://www.w3.org/1999/xlink" version="1.1"><path d="M0 152L22.8 148.5C45.7 145 91.3 138 137 141C182.7 144 228.3 157 274 162.2C319.7 167.3 365.3 164.7 411.2 162.3C457 160 503 158 548.8 164C594.7 170 640.3 184 686 190C731.7 196 777.3 194 823 191C868.7 188 914.3 184 937.2 182L960 180L960 0L937.2 0C914.3 0 868.7 0 823 0C777.3 0 731.7 0 686 0C640.3 0 594.7 0 548.8 0C503 0 457 0 411.2 0C365.3 0 319.7 0 274 0C228.3 0 182.7 0 137 0C91.3 0 45.7 0 22.8 0L0 0Z" fill="#111111"></path><path d="M0 115L22.8 103.7C45.7 92.3 91.3 69.7 137 61.7C182.7 53.7 228.3 60.3 274 68.7C319.7 77 365.3 87 411.2 86.8C457 86.7 503 76.3 548.8 79.3C594.7 82.3 640.3 98.7 686 99C731.7 99.3 777.3 83.7 823 83.8C868.7 84 914.3 100 937.2 108L960 116L960 0L937.2 0C914.3 0 868.7 0 823 0C777.3 0 731.7 0 686 0C640.3 0 594.7 0 548.8 0C503 0 457 0 411.2 0C365.3 0 319.7 0 274 0C228.3 0 182.7 0 137 0C91.3 0 45.7 0 22.8 0L0 0Z" fill="#FFFFFF"></path></svg>