<svg xmlns="http://www.w3.org/2000/svg" version="1.1" xmlns:xlink="http://www.w3.org/1999/xlink" xmlns:svgjs="http://svgjs.dev/svgjs" width="1200" height="560" preserveAspectRatio="none" viewBox="0 0 1200 560">
    <g mask="url(&quot;#SvgjsMask1009&quot;)" fill="none">
        <rect width="1200" height="560" x="0" y="0" fill="rgba(0, 0,0, 1)"></rect>
        <path d="M0,394.232C77.242,395.623,150.508,375.016,221.646,344.888C305.054,309.563,400.565,281.779,447.888,204.544C496.614,125.018,480.122,24.849,474.787,-68.264C468.993,-169.402,481.48,-283.162,415.54,-360.067C349.555,-437.024,235.423,-443.313,136.046,-463.332C44.437,-481.786,-53.098,-509.619,-138.496,-471.674C-221.156,-434.946,-254.066,-339.412,-307.348,-266.319C-355.669,-200.032,-418.402,-142.762,-436.574,-62.77C-455.534,20.693,-451.692,112.451,-410.426,187.435C-370.264,260.415,-290.966,299.512,-216.574,336.995C-148.512,371.288,-76.201,392.86,0,394.232" fill="#121212"></path>
        <path d="M1200 839.36C1255.734 835.568 1311.45 835.9200000000001 1361.881 811.891 1416.968 785.643 1471.76 751.135 1499.371 696.718 1527.408 641.462 1529.849 574.551 1512.487 515.071 1496.196 459.26 1446.425 423.369 1407.087 380.558 1369.01 339.121 1338.516 287.58 1285.67 268.235 1231.439 248.38299999999998 1170.223 254.067 1116.026 274.012 1063.7930000000001 293.234 1025.73 335.348 989.197 377.33799999999997 952.597 419.405 915.6510000000001 462.898 904.207 517.471 892.367 573.932 904.242 631.802 924.5070000000001 685.814 945.886 742.794 970.155 805.299 1023.315 834.928 1075.839 864.202 1140.008 843.442 1200 839.36" fill="#000000"></path>
    </g>
    <defs>
        <mask id="SvgjsMask1009">
            <rect width="1200" height="560" fill="#ffffff"></rect>
        </mask>
    </defs>
</svg>