<svg id="visual" viewBox="0 0 900 675" width="900" height="675" xmlns="http://www.w3.org/2000/svg" xmlns:xlink="http://www.w3.org/1999/xlink" version="1.1"><g transform="translate(989.5938799834264 133.08500833711022)"><path d="M505.4 -685.9C584.8 -637.9 530.6 -396.3 594.1 -194.6C657.5 7.2 838.5 169.2 809.7 264.6C780.8 360 542 388.7 372.1 416.8C202.2 445 101.1 472.5 -13.3 490.8C-127.7 509.2 -255.5 518.3 -382.8 476.3C-510.1 434.4 -636.9 341.3 -760 192.6C-883.2 43.9 -1002.7 -160.4 -991.2 -361C-979.6 -561.6 -837 -758.6 -649.9 -771.7C-462.9 -784.8 -231.4 -613.9 -9.2 -601.2C213 -588.5 425.9 -733.9 505.4 -685.9" fill="#f4f5ff"></path></g></svg>